# xmcd
#
# Track frame offsets: 
#        150
#        16065
#        31402
#        45592
#        60247
#        71325
#        84377
#        96877
#        110437
#        128242
#        146182
#        160757
#        182757
#        200112
#        215770
#        227775
#        243642
#        260630
#        273445
#        285830
#        298247
#        314735
#        329967
#        343150
#
# Disc length: 4784 seconds
#
# Revision: 3
# Processed by: cddbd v1.5.2PL0 Copyright (c) Steve Scherf et al.
# Submitted via: ExactAudioCopyFreeDBPlugin 1.0
#
DISCID=7b12ae18
DTITLE=Various Artist - Invictus Soul Box Set (Limited Edition 3-CD)
DYEAR=2006
DGENRE=Soul
TTITLE0=The Chairmen of the Board - Patches
TTITLE1=Eloise Laws - Love Factory
TTITLE2=The Hi-Lites - That's Love
TTITLE3=The Honey Cone - While You're Out Looking for Sugar
TTITLE4=The Barrino Brothers - I Shall Not Be Moved
TTITLE5=The Jones Girls - Taster of the Honey
TTITLE6=Earl English - Wanting You
TTITLE7=Tyrone Edwards - Can't Get Enough of You
TTITLE8=Freda Payne - Cherish What is Dear to You
TTITLE9=Brian Holland - I'm So Glad
TTITLE10=Scherrie Payne - V.I.P.
TTITLE11=100 Proof Aged In Soul - Everything Good is Bad
TTITLE12=Holland-Dozier - New Breed Kinda Woman
TTITLE13=The Chairmen of the Board - Try On My Love for Size
TTITLE14=Brenda Holloway - Let Love Grow
TTITLE15=Melvin Davis - You Made Me Over
TTITLE16=Ty Hunter - Don't See Me in Your Eyes Anymore
TTITLE17=The Silent Majority - Something New About You
TTITLE18=The Jones Girls - Your Love Controls Me
TTITLE19=Brotherly Love - Mama's Little Baby
TTITLE20=Ruth Copeland - The Music Box
TTITLE21=Holland-Dozier - Don't Leave Me Starvin' for Your Love (ft Br
TTITLE21=ian Holland)
TTITLE22=Freda Payne - You Bought the Joy
TTITLE23=Smith Connection - I've Been in Love
EXTD=
EXTT0=
EXTT1=
EXTT2=
EXTT3=
EXTT4=
EXTT5=
EXTT6=
EXTT7=
EXTT8=
EXTT9=
EXTT10=
EXTT11=
EXTT12=
EXTT13=
EXTT14=
EXTT15=
EXTT16=
EXTT17=
EXTT18=
EXTT19=
EXTT20=
EXTT21=
EXTT22=
EXTT23=
PLAYORDER=
